<mxfile host="app.diagrams.net" modified="2024-02-22T05:22:11.468Z" agent="Mozilla/5.0 (Windows NT 10.0; Win64; x64) AppleWebKit/537.36 (KHTML, like Gecko) Chrome/121.0.0.0 Safari/537.36" version="21.3.7" etag="oclRVXsiIk_8SU2YlD0W" type="github">
  <diagram name="第 1 页" id="k1q9DpE-isMBgyAAqlI9">
    <mxGraphModel>
      <root>
        <mxCell id="0" />
        <mxCell id="1" parent="0" />
      </root>
    </mxGraphModel>
  </diagram>
</mxfile>
